# xmcd
# Copyright (C) 1995-1998 Ti Kan
#
# Track frame offsets:
#       150
#       2379
#       17055
#       33258
#       53237
#       54532
#       69702
#       83142
#       101246
#       119001
#       132653
#       150595
#       171792
#       187130
#       203758
#       221360
#
# Disc length: 3211 seconds
#
# Revision: 0
# Processed by: cddbd v1.5.2PL0 Copyright (c) Steve Scherf et al.
# Submitted via: CD-Transfer v1.0
#
DISCID=e00c8910
DTITLE=Appassionante - 
DYEAR=09
DGENRE=
TTITLE0=Intro
TTITLE1=Salve Domine
TTITLE2=Appassionante
TTITLE3=Maladetta Primavera
TTITLE4=Where Are My Dreams
TTITLE5=Sweet Dreams
TTITLE6=Torna A Sorrento
TTITLE7=Sete
TTITLE8=Mirame
TTITLE9=Help
TTITLE10=Show Must Go On, The
TTITLE11=Il Mondo
TTITLE12=Lo Specchio
TTITLE13=Ti Sento
TTITLE14=Tu
TTITLE15=Ocean's Memory
EXTD=
EXTT0=
EXTT1=
EXTT2=
EXTT3=
EXTT4=
EXTT5=
EXTT6=
EXTT7=
EXTT8=
EXTT9=
EXTT10=
EXTT11=
EXTT12=
EXTT13=
EXTT14=
EXTT15=
PLAYORDER=
